<?xml version="1.0" encoding="utf-8"?>
<!-- Generator: Adobe Illustrator 15.0.2, SVG Export Plug-In . SVG Version: 6.00 Build 0)  -->
<!DOCTYPE svg PUBLIC "-//W3C//DTD SVG 1.1//EN" "http://www.w3.org/Graphics/SVG/1.1/DTD/svg11.dtd">
<svg version="1.1" id="Ebene_1" xmlns="http://www.w3.org/2000/svg" xmlns:xlink="http://www.w3.org/1999/xlink" x="0px" y="0px"
	 width="500px" height="500px" viewBox="0 0 500 500" enable-background="new 0 0 500 500" xml:space="preserve">
<path fill="#231F20" d="M441.861,319.834l-0.742-0.676c-0.061-0.078-8.441-7.594-18.368-19.986c0.101-0.592,0.056-1.316-0.491-2.237
	l-0.407-0.698l-0.736,0.246c-0.15,0.062-0.273,0.101-0.401,0.145c-3.845-4.949-7.433-9.998-10.646-15.087
	c-16.689-25.165-40.509-44.275-72.86-58.336c-9.642-4.124-18.53-7.898-26.85-11.427c-30.884-13.026-53.169-22.456-73.879-32.907
	c-26.121-13.224-33.774-19.303-34.156-33.855c-0.321-12.789,17.216-21.03,48.137-22.581c1.937-0.092,3.917-0.143,5.897-0.179
	c28.842-0.592,64.553,12.521,70.93,14.945c-1.462,2.929-5.474,11.865-5.596,22.799c-0.117,7.642,3.225,15.252,9.352,21.412
	c8.012,8.021,19.596,12.376,32.686,12.272l0.993-0.039c18.692-0.923,35.191-12.432,42.061-29.293l0.251-0.633l-0.536-0.469
	c-0.189-0.173-0.229-0.681-0.083-1.149c0.134-0.315,0.346-0.675,0.725-0.675h0.022h0.703l0.206-0.687
	c1.317-4.163,1.998-8.434,2.06-12.66c0.15-14.349-3.292-26.194-6.339-36.626c-2.315-7.984-4.312-14.917-4.503-21.733
	c-0.379-15.233,6.11-34.711,6.177-34.91l0.843-2.595l-2.305,1.462c-0.212,0.143-21.314,13.377-47.745,14.691
	c-1.233,0.062-2.478,0.087-3.728,0.112c-11.695,0.285-23.502-3.203-37.161-7.292c-19.92-5.935-44.756-13.319-81.252-12.854
	c-1.682,0.045-3.395,0.106-5.052,0.19c-32.667,1.624-58.055,11.846-73.642,20.118c-19.451,10.342-32.558,22.333-38.363,30.131
	c-11.841,16.362-33.113,45.09-42.546,53.345l-0.664,0.581l0.561,0.74c0.159,0.198,16.966,21.735,26.97,39.267
	c17.206,29.121,39.394,41.271,68.871,55.24c17.587,8.347,36.313,16.209,56.144,24.528c12.767,5.352,25.94,10.875,38.936,16.622
	c30.119,13.437,42.853,25.304,42.68,39.639c-0.24,21.565-25.031,27.335-45.766,28.367c-1.188,0.045-2.394,0.101-3.615,0.14
	c-38.347,0.563-74.671-11.41-102.224-33.725l-0.474-0.373l-1.462,0.747c-0.851-0.804-0.611-1.439-0.508-1.668l0.257-0.636
	l-0.533-0.458c-17.392-14.825-30.9-33.473-40.121-55.451l-0.622-1.523l-1.035,1.294c-0.893,1.111-22.417,27.821-22.148,53.856
	c0.474,14.842,3.063,22.313,5.119,28.278c1.651,4.765,3.074,8.883,3.008,15.444c0.092,10.396-3.097,19.696-6.241,28.708
	l-0.948,2.801L88,395.456l0.296,0.915c0.212,0.714,0.452,1.439,0.742,2.215l0.15,0.469c-0.608,1.908-1.144,3.822-1.635,5.68
	c-0.321-0.385-0.631-0.792-0.949-1.188l-0.321-0.402l-2,0.201l-0.667,7.594l3.005-2.215c-1.504,7.275-1.767,14.385,0.061,22.207
	v0.452l0.664,0.614l0.418-0.062c0.433,0,0.814-0.269,2.204-1.228c4.771-3.27,19.947-13.609,41.039-13.387
	c11.352,0.185,22.637,3.639,35.705,7.662c21.697,6.65,48.717,14.937,92.171,14.2c3.014-0.067,5.987-0.185,8.934-0.324
	c63.358-3.13,111.812-28.083,140.085-72.112c22.57-34.533,33.155-46.083,33.294-46.206L441.861,319.834z M383.537,142.727
	c-0.189,1.242-0.81,1.384-1.529,1.415c-0.687,0.056-1.568-0.126-2.399-0.312C380.669,142.78,381.902,142.448,383.537,142.727
	 M306.776,80.089c1.355,0.312,2.31,0.884,2.762,1.663c0.491,0.809,0.553,1.95,0.167,3.415c-1.327-0.352-2.254-0.904-2.756-1.685
	C306.458,82.675,306.419,81.528,306.776,80.089 M251.866,62.568c0.664,0.159,1.316,0.32,1.991,0.485l-0.49,2.051
	c-0.692-0.143-1.306-0.321-1.992-0.483L251.866,62.568z M164.844,205.262c-0.53-0.491-0.748-1.029-0.558-1.56
	c0.302-1.026,1.783-2.034,3.119-2.087c0.371-0.033,0.89,0.034,1.25,0.368c0.282,0.288,0.401,0.692,0.469,1.105L164.844,205.262z
	 M197.525,84.89c-0.675-0.153-1.339-0.323-1.989-0.466l0.524-2.053l1.931,0.458L197.525,84.89z M256.023,226.484l0.027-0.022
	c1.406,0.413,4.067-1.261,5.513-0.954c1.222,0.265,1.411,1.632,1.713,2.81C261.14,227.879,257.68,227.14,256.023,226.484
	 M269.213,231.479c-0.356,0.036-0.742-0.126-0.938-0.391c-0.167-0.185-0.206-0.374-0.167-0.603l0.134-0.625
	c0.658,0.391,1.188,0.817,1.613,1.35C269.682,231.392,269.453,231.479,269.213,231.479 M273.732,433.498
	c-0.719-0.2-1.104-0.568-1.5-1.082l-0.213-0.234c-0.346-0.424-0.742-0.921-1.328-1.306c0.117-0.083,0.246-0.212,0.396-0.296
	c0.341-0.245,0.653-0.496,0.932-0.798c0.19-0.223,0.441-0.496,0.653-0.887l2.081,0.519L273.732,433.498z"/>
</svg>
